<svg xmlns="http://www.w3.org/2000/svg" width="256mm" height="256mm" viewBox="0 0 256 256"><path style="fill:#fff;fill-opacity:1;fill-rule:nonzero;stroke:none;stroke-width:.61223" d="M128.003.76C57.733.76.766 57.726.766 127.996c0 70.263 56.968 127.238 127.237 127.238 70.27 0 127.231-56.975 127.231-127.238 0-70.27-56.962-127.238-127.231-127.238"/><path style="display:inline;fill:#002e79;fill-opacity:1;fill-rule:nonzero;stroke:none;stroke-width:.61223" d="M133.29 6.835C66.402 3.917 9.794 55.773 6.876 122.675 3.963 189.563 55.82 246.164 122.71 249.072c66.893 2.928 123.493-48.936 126.413-115.824C252.043 66.355 200.186 9.756 133.29 6.835"/><path style="display:inline;fill:#fff;fill-opacity:1;fill-rule:nonzero;stroke:none;stroke-width:.61223" d="M128.003 45.254c-45.67 0-82.702 37.022-82.702 82.708 0 45.671 37.032 82.695 82.702 82.695 45.68 0 82.703-37.024 82.703-82.695 0-45.686-37.023-82.708-82.703-82.708"/><path style="fill:#b58a43;fill-opacity:1;fill-rule:nonzero;stroke:none;stroke-width:.61223" d="M128.003 1.524C58.266 1.524 1.531 58.26 1.531 127.997S58.266 254.47 128.003 254.47c69.733 0 126.466-56.736 126.466-126.473S197.736 1.524 128.003 1.524m0 254.476C57.423 256 0 198.58 0 127.997 0 57.417 57.423-.006 128.003-.006 198.58-.006 256 57.416 256 127.997 256 198.579 198.58 256 128.002 256"/><path style="fill:#b58a43;fill-opacity:1;fill-rule:nonzero;stroke:none;stroke-width:.61223" d="M128.003 51.482c-42.156 0-76.453 34.296-76.453 76.453 0 42.159 34.297 76.46 76.453 76.46 42.156 0 76.452-34.301 76.452-76.46 0-42.157-34.296-76.453-76.452-76.453m0 154.443c-43 0-77.983-34.987-77.983-77.99 0-43.001 34.983-77.984 77.983-77.984 43 0 77.982 34.983 77.982 77.984 0 43.003-34.981 77.99-77.982 77.99"/><path d="m42.561 177.216-1.293 4.828-4.828-1.295 1.294-4.827zM30.401 160.2c-.812-2.52-1.876-2.88-3.37-2.397-2.049.66-2.448 1.982-1.876 3.753.089.277.154.286.252.59.682-.067 1.326-.244 2.85-.735l6.337-2.045c2.242-.723 2.731-.82 2.23-2.37-.74-2.297-1.93-3.045-3.867-2.42-2.02.653-3.17 2.583-1.919 5.418.027.083-.61.289-.637.205m7.975-1.044c.385 1.19.822 2.546 1.21 3.368.116.268-.49.28-.517.197-.784-1.765-1.205-1.933-3.835-1.086l-6.255 2.02c-2.629.847-2.872 1.231-2.504 3.129.027.084-.51.41-.544.115-.13-.875-.45-1.87-.844-3.09-.16-.498-.68-1.827-.904-2.52-.76-2.352-.348-4.868 1.727-5.537 1.163-.376 2.793.321 3.773 1.747-.63-2.426.226-4.414 2.025-4.993 2.325-.751 4.885.838 5.903 3.993.223.692.596 2.13.765 2.657M21.234 145.698c.42.056 1.263-.012 2.817-.241l3.451-.515c-.038-.259-.035-.435-.09-.808-.424-2.85-1.684-3.81-3.64-3.518-2.416.36-3.074 1.869-2.702 4.371.047.317.09.4.164.711m7.007-1.718c.065.432.086.575.096.838l2.416-.359c2.59-.385 3.077-.663 2.96-2.645-.014-.085.581-.233.55-.052.012.674.201 2.146.338 3.067.188 1.266.398 2.675.65 3.578.083.165-.534.167-.547.08-.48-1.839-.876-2.132-3.608-1.726l-6.502.966c-2.502.372-2.98.914-2.831 1.92.034.23.101.485.206.793.075.107-.45.331-.505.164-.425-.879-.92-3.421-1.271-5.78-.577-3.883.351-6.139 2.653-6.48 1.439-.215 3.002.612 3.973 2.203 2.764-1.588 6.328-4.911 5.955-7.415-.013-.086.521-.254.546-.08.702 4.718-2.237 7.889-5.49 9.344.163.505.347 1.153.411 1.584M33.144 128.208c.007 1.307.015 2.704.137 3.633.06.233-.553.091-.553.033-.214-1.919-.593-2.207-3.328-2.193l-6.573.038c-2.763.015-3.138.308-3.331 2.229 0 .058-.58.177-.553-.054.14-.903.132-2.3.125-3.609-.005-.871-.071-2.384-.163-3.052-.03-.232.553-.12.553-.06.157 2.005.768 2.204 3.357 2.19l6.572-.036c2.589-.015 3.14-.221 3.303-2.229 0-.058.58-.178.553.055-.083.67-.103 2.182-.099 3.055M33.8 107.922c.743 2.042 1.11 3.826.809 5.986-.695 4.984-4.463 7.57-8.207 7.048-3.946-.551-7.241-4.505-6.55-9.46.285-2.044 1.578-4.154 1.976-4.48.168-.154 2.04-.097 3.377.207.144.02.01.559-.047.55-1.716-.122-4.076 1.429-4.49 4.395-.45 3.227 1.376 5.713 5.265 6.256 4.695.655 7.356-1.793 7.79-4.904.314-2.246-.185-2.668-.486-2.828-.218-.118-.873-.268-1.363-.336-2.764-.386-2.892-.316-3.387 1.964-.011.086-.6.092-.546-.076.214-.91.498-2.515.674-3.783.125-.892.276-2.193.283-2.867-.034-.18.534-.043.523.043-.101 1.983.157 2.02 2.895 2.402.633.088 1.127.127 1.484-.117M39.159 94.843c-.02.146-.55-.1-.522-.182.363-1.66.084-2.096-2.47-2.987l-2.801-.976-2.567 7.36 2.802.976c2.416.843 3.07.824 3.782-.775.028-.083.624.063.512.208-.313.632-.761 1.83-1.067 2.708-.412 1.181-.95 2.72-1.146 3.636-.001.184-.55-.1-.521-.182.48-2.173.273-2.46-2.335-3.37l-6.207-2.164c-2.61-.91-3.005-.833-3.953 1.178-.028.082-.625-.064-.512-.21.434-.803.97-2.34 1.382-3.521.306-.88.673-2.107.82-2.794.003-.185.56.071.531.154-.437 1.695.064 2.116 2.508 2.969l2.608.909 2.566-7.36-2.61-.91c-2.58-.9-3.098-.741-3.817.794-.03.083-.625-.063-.55-.191.435-.803.873-1.975 1.285-3.156.316-.906.817-2.518.955-3.178.002-.185.579.017.531.154-.582 2.2-.098 2.491 2.373 3.353l6.207 2.164c2.471.862 2.977.915 3.915-1.16.048-.138.625.064.513.209-.303.602-.886 2.186-1.202 3.092-.412 1.18-.814 2.335-1.01 3.252M39.312 79.44l2.032-3.495-5.13-.897zm7.438-.351c-.038.18-.522-.202-.478-.278.396-.913.83-1.368.326-1.66-.577-.336-1.597-.492-2.742-.72l-1.596-.324-2.37 4.074.997 1.353c.829 1.12 1.397 1.821 1.9 2.113.427.25.705-.228 1.248-.99.073-.125.601.182.464.304-.413.534-.891 1.298-1.358 2.103-.63 1.081-.731 1.257-1.113 2.145-.063.166-.522-.201-.478-.277.63-1.316.332-2.364-1.225-4.548l-6.7-9.48c-.096-.124.025-.39.205-.352l11.232 1.686c2.234.324 3.37.513 4.573-1.209.044-.076.6.18.463.303-.427.56-1.08 1.626-1.562 2.455-.63 1.08-1.419 2.439-1.786 3.302M59.306 62.528c-.072.17-.49-.28-.432-.346.99-1.375.88-1.863-1.181-3.66L51.9 53.525l5.273 11.311c.07.14-.164.36-.29.326l-12.001-3.4 5.463 5.018c1.74 1.586 2.443 1.978 3.888.617.058-.065.552.297.393.39-.51.44-1.053 1.008-1.671 1.703-.832.934-1.451 1.63-1.983 2.403-.072.169-.47-.303-.413-.368 1.124-1.57.862-2.192-.968-3.899l-5.618-5.193c-.741-.698-2.202-.675-3.434.447-.058.065-.55-.256-.392-.347.863-.751 1.869-1.881 3.24-3.423l11.64 3.194-3.23-6.651c-.702-1.443-1.278-2.85-1.954-3.842 1.032-1.028 2.477-2.74 3.065-3.618.072-.17.468.26.43.305-1.376 1.851-1.081 2.307.912 4.004l4.988 4.282c1.994 1.697 2.52 1.893 4.14.336.058-.065.552.297.393.39-.529.463-1.653 1.682-2.271 2.377-.87.978-1.663 1.869-2.195 2.64M74.271 41.157l1.803 2.817c1.661 2.597 1.888 2.52 3.649 1.602.073-.047.45.436.273.48-.635.303-1.876 1.063-2.66 1.564-1.102.706-2.279 1.458-3 2.058-.115.142-.37-.419-.297-.466 1.467-1.214 1.79-1.249.051-3.968l-1.615-2.523-3.271-1.498c-3.48-1.607-4.171-1.717-5.809-.876-.073.047-.476-.42-.298-.466.848-.403 1.803-1.014 2.88-1.704.784-.502 1.97-1.294 2.486-1.728.115-.143.396.402.322.45-1.514 1.141-.913 1.378 2.462 2.878l2.13.95.152-2.997c.19-3.643-.004-3.622-1.608-2.838-.074.047-.5-.404-.274-.48.822-.389 1.607-.89 2.684-1.58.784-.501 1.259-.84 1.775-1.273.116-.144.396.402.322.45-1.514 1.14-1.735 1.766-1.93 5.24zM84.285 34.805c1.795 4.418 5.555 5.56 8.25 4.464 2.883-1.17 4.261-3.803 2.795-7.413-1.796-4.42-5.604-5.604-8.299-4.508-2.883 1.17-4.223 3.82-2.746 7.457m-1.913 1.781c-1.5-3.692.36-8.465 4.778-10.26 4.15-1.686 8.604.24 10.039 3.77 1.488 3.664-.344 8.427-4.789 10.233-4.123 1.675-8.594-.213-10.028-3.743M115.165 28.5c.565 2.912-1.155 5.795-4.98 6.538-3.312.645-6.544-.89-7.21-4.316l-.977-5.024c-.528-2.712-.914-3.022-2.814-2.89-.086.017-.253-.542-.07-.52.911-.029 2.276-.324 3.561-.573.914-.178 2.335-.484 3.004-.703.16-.09.271.48.129.508-1.908.549-1.97 1.153-1.47 3.723l.884 4.54c.649 3.34 3.107 4.402 5.306 3.975 2.883-.562 4.096-2.397 3.525-5.338l-.988-5.081c-.478-2.455-.875-2.823-2.776-2.69-.148-.001-.254-.543-.071-.52.913-.03 1.564-.186 2.82-.43.886-.172 1.822-.383 2.461-.597.223-.073.215.492.157.503-1.936.554-1.985 1.216-1.535 3.528zM135.453 29.204c-.007 1.076.006 3.054.115 3.986 0 .087-.35.201-.523.024L124.28 22.11l-.054 7.009c-.017 2.326.18 3.142 2.185 3.332.059 0 .112.611-.061.552-.67-.092-1.454-.128-2.356-.134-1.279-.01-2.21-.016-3.141.093-.146.027-.083-.554.004-.554 1.921-.188 2.216-.826 2.236-3.297l.056-7.475c.007-.989-1.814-2.34-2.802-2.465-.088 0-.141-.61.033-.552.9.153 2.587.195 3.838.204l10.07 10.576.05-6.777c.02-2.5-.267-3.143-2.155-3.36-.144-.03-.14-.612.033-.553.872.153 1.598.157 2.88.167.93.008 1.918-.043 2.558-.125.292-.027.142.553.084.553-2.037.13-2.218 1-2.236 3.328zM153.446 34.836c-2.08.626-3.881.891-6.022.468-4.936-.978-7.303-4.886-6.569-8.595.774-3.908 4.908-6.973 9.816-6.002 2.025.401 4.058 1.812 4.361 2.228.144.177-.018 2.041-.398 3.36-.028.143-.559-.022-.548-.079.22-1.705-1.195-4.15-4.133-4.732-3.196-.633-5.782 1.05-6.544 4.9-.92 4.652 1.372 7.447 4.453 8.057 2.225.441 2.675-.034 2.852-.324.13-.212.317-.856.414-1.342.54-2.738.478-2.87-1.77-3.493-.085-.016-.058-.603.108-.542.895.266 2.48.64 3.736.889.886.175 2.175.4 2.848.445.182-.023.012.536-.074.52-1.972-.214-2.023.043-2.561 2.753-.124.628-.192 1.118.031 1.489M178.134 41.006c-1.317 2.658-4.433 3.907-7.924 2.178-3.024-1.495-4.664-4.676-3.115-7.805l2.27-4.586c1.225-2.477 1.106-2.958-.486-4.005-.078-.038.129-.585.259-.455.744.53 2.007 1.122 3.18 1.703.835.413 2.151 1.031 2.815 1.263.183.025-.076.547-.206.482-1.85-.72-2.265-.277-3.424 2.069l-2.053 4.145c-1.508 3.05-.199 5.386 1.809 6.379 2.633 1.302 4.711.579 6.04-2.106l2.295-4.64c1.11-2.243 1.017-2.775-.575-3.821-.116-.092.128-.586.259-.457.743.53 1.355.801 2.501 1.369.81.4 1.682.8 2.32 1.017.222.077-.127.521-.179.495-1.875-.733-2.316-.238-3.361 1.875zM193.842 53.88c-.66.85-1.85 2.431-2.329 3.237-.054.069-.4-.053-.431-.298l-1.81-15.359-4.298 5.537c-1.428 1.838-1.765 2.606-.287 3.974.045.036-.282.554-.386.401-.474-.479-1.077-.983-1.789-1.536-1.01-.785-1.746-1.355-2.553-1.834-.133-.067.27-.49.34-.437 1.64 1.017 2.263.69 3.778-1.263l4.583-5.905c.607-.78-.02-2.962-.73-3.659-.068-.054.259-.572.362-.42.624.669 1.937 1.726 2.926 2.493l1.58 14.517 4.155-5.353c1.534-1.976 1.696-2.66.327-3.98-.096-.112.26-.571.362-.418.6.65 1.175 1.096 2.187 1.88.733.571 1.551 1.13 2.11 1.454.247.156-.224.526-.27.49-1.697-1.133-2.371-.55-3.797 1.288zM197.726 63.222c-.894-.956-1.848-1.975-2.568-2.576-.202-.13.343-.44.384-.398 1.46 1.262 1.934 1.217 3.93-.651l4.802-4.489c2.018-1.888 2.096-2.358.932-3.899-.038-.042.307-.524.444-.335.51.758 1.464 1.778 2.357 2.734.595.637 1.672 1.702 2.192 2.13.18.15-.324.463-.363.42-1.477-1.365-2.063-1.097-3.954.671l-4.8 4.49c-1.89 1.767-2.155 2.293-.911 3.878.04.043-.306.525-.444.335-.393-.548-1.405-1.673-2.001-2.31M206.259 74.282c-.088.026-.335-.227-.243-.399l6.014-9.787c1.36-2.222 1.67-3.253.792-4.767-.05-.072.401-.493.453-.316.328.622 1.027 1.73 1.542 2.47.731 1.05 1.647 2.362 2.264 2.995.148.11-.331.442-.437.34-.644-.721-1.007-1.142-1.484-.81-.335.234-.89.761-1.686 2.06l-4.084 6.706 7.69-1.527c1.736-.358 2.12-.52 2.55-.818.406-.282.283-.765-.194-1.602-.05-.071.402-.492.453-.315a20.44 20.44 0 0 0 1.31 2.136c.748 1.073.865 1.24 1.498 1.897.148.11-.385.41-.436.34-.9-1.039-1.898-1.301-4.646-.77zM215.78 91.155c-.353-.734-.84-2.016-1.546-3.484-.957-1.993-2.103-4.378-2.913-5.796-.076-.157.46-.317.498-.24 1.192 1.88 1.544 1.937 4.034.74l5.925-2.845c2.49-1.196 2.716-1.531 1.969-3.624-.038-.079.475-.422.524-.252.574 1.53 1.656 3.85 2.613 5.843a52.306 52.306 0 0 0 2.071 3.908c-.48.071-1.032.336-1.425.524-.21.102-.799.353-.918.441-.053.026-.317-.46-.265-.485.79-.573 1.058-1.09-.164-3.632l-.818-1.704c-.484.136-1.23.462-2.463 1.054l-2.411 1.158.63 1.311c1.058 2.202 1.184 2.334 2.125 2.142.052-.026.318.46.175.497-.328.06-1.153.423-1.598.638-.236.112-.943.453-1.127.54-.002.066-.292-.472-.266-.484.934-.675.937-.87-.07-2.968l-.63-1.31-2.594 1.246c-2.518 1.21-2.691 1.454-2.262 2.345l.49 1.022c1.448 3.015 1.906 2.893 3.329 2.564.027-.013.278.512.2.549-.536.16-1.922.568-2.378.626-.43.11-.572.017-.735-.324M231.565 95.46c-.423.004-1.248.188-2.755.634l-3.346.99c.075.25.097.426.203.788.818 2.76 2.199 3.535 4.096 2.975 2.342-.693 2.783-2.279 2.066-4.706-.092-.307-.144-.382-.264-.68m-6.697 2.678c-.125-.417-.166-.558-.213-.817l-2.342.693c-2.51.742-2.955 1.086-2.56 3.032.024.084-.544.313-.538.129-.107-.666-.5-2.096-.764-2.99-.362-1.226-.767-2.593-1.142-3.453-.105-.15.505-.24.53-.156.732 1.755 1.165 1.99 3.815 1.208l6.302-1.865c2.427-.718 2.825-1.32 2.536-2.296a4.608 4.608 0 0 0-.315-.757c-.088-.095.4-.391.478-.232.543.81 1.389 3.259 2.064 5.546 1.113 3.765.509 6.127-1.723 6.787-1.395.413-3.058-.187-4.242-1.626-2.514 1.957-5.58 5.744-4.862 8.171.025.084-.48.324-.53.156-1.352-4.574 1.115-8.123 4.135-10.017-.233-.478-.507-1.094-.63-1.513M222.818 110.414c.07-.127 1.696-.265 3.235-.39.144-.021.158.505.1.513-2.164.478-3.732 1.87-3.42 4.117.217 1.556 1.287 2.494 2.67 2.3 3.6-.5 2.719-6.838 6.664-7.386 1.988-.276 4.282 1.224 4.65 3.874.177 1.268-.086 2.126-.413 2.936-.091.189-1.24.584-2.708.787-.087.013-.168-.563-.081-.575 1.548-.48 2.499-1.67 2.282-3.225-.188-1.354-.991-2.27-2.317-2.086-3.457.482-2.504 6.69-6.653 7.269-2.362.328-4.663-1.23-5.044-3.967-.22-1.584.242-2.91 1.035-4.167M223.137 126.509c-.023-1.309-.045-2.705-.178-3.633-.062-.232.551-.098.553-.039.235 1.916.62 2.2 3.35 2.154l6.574-.111c2.762-.047 3.135-.345 3.305-2.268 0-.057.58-.183.555.05-.13.904-.106 2.3-.085 3.609.014.871.098 2.382.197 3.049.033.233-.55.127-.552.069-.18-2.005-.793-2.198-3.38-2.154l-6.573.111c-2.587.044-3.137.257-3.278 2.267.002.057-.578.184-.552-.05.076-.67.079-2.182.064-3.054M232.793 148.206c-.087-.01.006-.526.064-.52.978-.084 1.734-.752 2.021-3.06l.236-1.906-9.149-1.136c-2.568-.318-3.139-.212-3.562 1.786-.01.087-.595.072-.538-.155.17-.654.381-2.121.495-3.045.154-1.24.33-2.655.326-3.563-.029-.24.562-.048.551.038-.034 1.93.305 2.265 3.018 2.601l9.15 1.136.25-2.02c.277-2.222-.25-3.166-1.226-3.58-.014-.12.04-.553.123-.513.45.144 1.54.338 2.146.412.23.03.664.082 1.14.024.09-.017.055.505-.035.524-.714.088-.75.142-1.137 3.258l-.778 6.263c-.382 3.09-.4 3.233.3 3.496.083.04-.014.584-.123.512-.447-.173-1.19-.324-1.912-.413-.347-.044-1.069-.132-1.36-.14M225.454 158.929l-3.2-.975c-2.95-.898-3.072-.692-3.815 1.148-.026.084-.628-.039-.52-.189.285-.642.736-2.025 1.009-2.914.381-1.252.788-2.587.947-3.513-.004-.183.553.078.528.162-.327 1.876-.551 2.112 2.536 3.052l2.867.873 3.46-.983c3.691-1.035 4.287-1.401 4.988-3.104.026-.082.636.012.53.162-.383.856-.713 1.941-1.086 3.166-.272.89-.659 2.261-.77 2.928.005.184-.563-.05-.537-.133.412-1.852-.2-1.643-3.742-.592l-2.236.656 1.828 2.381c2.22 2.896 2.354 2.754 3.065 1.115.026-.084.645-.016.52.188-.373.83-.643 1.72-1.017 2.944-.27.89-.412 1.456-.523 2.12.004.184-.563-.049-.538-.132.412-1.851.175-2.471-1.931-5.24zM213.54 177.55l4.833-1.274 1.275 4.833-4.832 1.274zM51.471 197.617c-.059-.064.328-.417.387-.352l.176.194c1.352 1.483 3.054 1.623 4.773.057 1.634-1.49 1.624-3.054.273-4.537-.137-.15-.513-.476-.73-.672-.571.323-1.044.755-2.248 1.85l-4.857 4.428c-1.936 1.762-2.205 2.245-1.002 3.823.059.064-.354.519-.427.35-.387-.552-1.364-1.668-1.99-2.356-.863-.946-1.804-1.978-2.516-2.588-.2-.132.35-.436.409-.371 1.443 1.282 1.897 1.261 3.939-.6l4.857-4.425c2.021-1.842 2.105-2.311.984-3.887-.058-.066.274-.565.387-.352.541.765 1.246 1.539 2.088 2.463.353.387 1.436 1.446 1.965 2.027 1.978 2.171 2.472 4.829.774 6.376-1.892 1.723-4.755 1.303-7.046-1.212l-.196-.216M67.068 202.426c-.344.247-.913.873-1.887 2.105l-2.166 2.736c.206.161.324.293.62.528 2.259 1.786 3.834 1.623 5.06.073 1.516-1.916.963-3.466-1.021-5.037-.251-.198-.337-.229-.606-.405m-3.933 6.049c-.342-.272-.456-.361-.644-.547l-1.515 1.916c-1.624 2.052-1.789 2.589-.347 3.953.07.054-.265.57-.365.416-.47-.484-1.615-1.428-2.345-2.004-1.004-.794-2.121-1.679-2.923-2.165-.173-.063.274-.487.343-.433 1.608 1.013 2.098.956 3.813-1.211l4.077-5.154c1.57-1.985 1.548-2.706.75-3.337a4.625 4.625 0 0 0-.693-.438c-.127-.025.102-.55.257-.463.91.348 3.012 1.863 4.882 3.343 3.079 2.435 3.945 4.716 2.502 6.54-.903 1.14-2.607 1.608-4.404 1.113-.928 3.049-1.252 7.91.732 9.48.068.055-.206.542-.343.433-3.74-2.958-3.768-7.282-2.391-10.57-.465-.256-1.043-.602-1.386-.872M76.472 215.989c-2.187 4.239-.606 7.835 1.978 9.168 2.766 1.426 5.662.76 7.448-2.702 2.186-4.24.607-7.902-1.979-9.234-2.764-1.427-5.648-.72-7.447 2.768m-2.598-.294c1.826-3.54 6.66-5.235 10.898-3.049 3.981 2.053 5.418 6.688 3.672 10.075-1.813 3.514-6.62 5.222-10.886 3.023-3.954-2.04-5.43-6.663-3.684-10.049M97.554 233.54c-.052.075-.403.032-.437-.16l-1.435-11.396c-.33-2.585-.734-3.581-2.367-4.214-.084-.026.006-.635.156-.53.646.28 1.884.706 2.75.96 1.227.362 2.761.814 3.639.921.184-.007.02.552-.129.538-.953-.16-1.5-.26-1.663.298-.115.391-.218 1.15-.026 2.66l1.012 7.787 5.042-6.003c1.129-1.366 1.328-1.731 1.476-2.233.14-.476-.258-.775-1.153-1.129-.084-.024.004-.635.155-.53.618.273 1.466.584 2.36.846 1.254.37 1.45.427 2.355.542.184-.006-.045.563-.128.538-1.352-.246-2.295.174-4.106 2.308zM112.666 228.844c-.457 4.747 2.347 7.5 5.241 7.778 3.098.297 5.54-1.396 5.913-5.275.455-4.747-2.37-7.562-5.266-7.84-3.097-.297-5.513 1.428-5.888 5.337m-2.521.692c.381-3.966 4.24-7.335 8.988-6.879 4.458.43 7.514 4.2 7.15 7.992-.38 3.937-4.21 7.308-8.985 6.85-4.43-.427-7.517-4.171-7.153-7.963M128.455 240.368c1.861-.034 2.312-.855 2.299-1.582-.01-.494-.334-.78-1.037-1.117-.558-.25-.824-.48-.833-.974-.01-.552.448-.967 1.06-.977.93-.018 1.933.75 1.958 2.174.03 1.686-1.402 2.993-3.409 3.028-.173.003-.096-.55-.038-.552M158.948 228.158c.697 2.884-.894 5.84-4.682 6.756-3.279.793-6.576-.596-7.395-3.988l-1.202-4.975c-.649-2.686-1.048-2.978-2.94-2.76-.085.02-.278-.532-.096-.515.912-.072 2.262-.427 3.534-.734.904-.22 2.31-.59 2.968-.837.157-.097.293.468.152.502-1.881.634-1.914 1.24-1.3 3.785l1.085 4.494c.8 3.307 3.304 4.259 5.48 3.733 2.855-.691 3.985-2.579 3.28-5.49l-1.214-5.031c-.588-2.433-1-2.78-2.893-2.564-.147.006-.278-.53-.095-.516.911-.07 1.555-.255 2.798-.556.876-.21 1.803-.464 2.431-.707.22-.082.237.481.18.495-1.909.642-1.928 1.305-1.375 3.595zM175.653 214.332c.037.08-.45.273-.475.22-.585-.788-1.553-1.08-3.666-.107l-1.745.8 3.852 8.377c1.081 2.351 1.47 2.78 3.393 2.088.08-.035.375.468.152.54-.644.2-2.004.792-2.85 1.182-1.136.522-2.43 1.116-3.201 1.6-.188.15-.337-.454-.258-.49 1.66-.987 1.766-1.452.624-3.936l-3.852-8.375-1.849.85c-2.034.936-2.56 1.88-2.4 2.927-.092.076-.49.259-.499.166-.114-.459-.524-1.487-.78-2.042-.097-.21-.279-.608-.578-.982-.063-.067.4-.312.463-.245.45.562.515.563 3.37-.749l5.732-2.637c2.828-1.3 2.96-1.36 2.814-2.093-.01-.092.504-.297.5-.167.09.472.352 1.183.655 1.844.147.316.45.977.598 1.23M183.857 215.247l3.349-2.264-4.23-3.038zm6.85 2.915c-.11.146-.38-.41-.309-.457.755-.65 1.342-.873 1.017-1.355-.376-.554-1.226-1.137-2.159-1.841l-1.297-.984-3.903 2.64.31 1.652c.26 1.369.467 2.248.794 2.729.276.41.733.1 1.554-.35.12-.08.462.425.284.474-.602.303-1.365.785-2.136 1.305-1.036.701-1.205.814-1.935 1.448-.128.123-.382-.408-.309-.457 1.139-.91 1.326-1.985.873-4.628l-1.916-11.448c-.033-.153.192-.34.338-.228l9.382 6.398c1.873 1.262 2.812 1.926 4.644.897.074-.05.464.425.285.474-.626.318-1.678.996-2.473 1.532-1.036.7-2.336 1.582-3.043 2.199M207.374 203.95c-.082.123-.453-.328-.392-.39 1.045-1.34.982-1.855-.937-3.76l-2.105-2.091-5.493 5.527 2.105 2.091c1.814 1.804 2.412 2.07 3.744.934.063-.06.537.328.372.411-.554.434-1.476 1.32-2.133 1.98-.88.887-2.03 2.043-2.602 2.785-.082.165-.455-.329-.392-.39 1.372-1.751 1.31-2.102-.65-4.049l-4.662-4.632c-1.959-1.948-2.35-2.05-4.074-.645-.061.06-.535-.328-.37-.41.738-.538 1.886-1.693 2.767-2.58.657-.66 1.516-1.608 1.947-2.166.082-.164.473.308.412.37-1.127 1.34-.858 1.935.98 3.76l1.959 1.948 5.492-5.53-1.959-1.947c-1.938-1.927-2.474-2.007-3.786-.934-.061.063-.537-.327-.413-.41.739-.536 1.64-1.403 2.522-2.29.677-.681 1.825-1.919 2.234-2.454.081-.166.514.265.412.368-1.474 1.733-1.165 2.205.691 4.05l4.663 4.633c1.856 1.844 2.288 2.11 4.032.646.102-.104.535.327.37.41-.533.412-1.742 1.588-2.418 2.268-.881.888-1.743 1.755-2.316 2.496" style="fill:#fff;fill-opacity:1;fill-rule:nonzero;stroke:none;stroke-width:.61223"/><path d="M73.874 177.777v.462c1.776-.04 2.592-.06 3.184-.06.551 0 1.286.02 1.96.04.47.02.939.02 1.205.02 2.43 0 4.675-.843 6.206-2.327 1.388-1.344 2.103-3.11 2.103-5.275 0-1.906-.552-3.47-1.572-4.453-1.184-1.144-2.9-1.666-5.553-1.666l-2.777.04c-2 .02-2 .02-2.143.02-.266 0-.266 0-3.287-.06v.743l.755.06c.94.08.96.16.98 1.966v8.986c-.02.722-.102.963-.408 1.143zm3.94-12.175c.47-.06.776-.08 1.266-.08 1.428 0 3.041.26 3.898.642.409.2.797.46 1.144.802.919.882 1.347 2.246 1.347 4.232 0 2.047-.49 3.55-1.49 4.514-1.021.983-2.47 1.424-4.777 1.424-.551 0-.878-.02-1.388-.1zm20.497 6.66c0-2.147-1.53-3.53-3.879-3.53-.694 0-1.224.139-1.776.46l-.959.562c-1.348.802-1.94 1.966-1.94 3.892 0 3.189 1.613 4.873 4.676 4.873 1.183 0 1.898-.2 3.225-.861l.45-.963-.246-.301c-.959.522-1.572.702-2.388.702-1.062 0-2.062-.562-2.573-1.425-.326-.562-.449-1.023-.49-1.966h2.675c1.184 0 2.225-.14 3.225-.4zm-4.307.44h-.082c-.184 0-.53-.02-.98-.04-.102 0-.286 0-.653-.02.061-1.985.551-2.787 1.735-2.787 1.164 0 1.654.802 1.694 2.788zm5.227 9.91v.742l2.633-.06h.266c.225 0 .225 0 2.695.06v-.742l-.919-.04c-.653-.04-.735-.18-.735-1.284v-3.109c1.001.28 1.327.34 1.817.34.694 0 1.409-.36 2.797-1.444.143-.1.285-.2.347-.26 1.347-1.003 2.082-2.567 2.082-4.373 0-2.146-1.572-3.71-3.695-3.71-.817 0-1.388.22-2.102.781l-1.246.984v-1.646l-.203-.12-1.43.441c-.735.2-1.082.28-2.082.4l-.225.022v.722l.919.06c.47.04.531.18.531 1.404v9.508c0 1.103-.062 1.223-.735 1.284zm3.94-11.073c.429-.661 1.123-1.003 1.96-1.003 1.572 0 2.51 1.204 2.51 3.21 0 2.106-.918 3.41-2.408 3.41-.857 0-1.51-.341-2.062-1.103zm13.577 5.296-.102 1.244.102.16c1.082-.04 1.552-.06 1.858-.06.286 0 .735.02 1.796.06v-.742l-.612-.06c-.449-.06-.551-.281-.572-1.224v-.421c-.02-.683-.04-1.244-.04-1.706 0-.501.02-1.162.04-1.925.02-.26.02-.46.02-.602 0-1.765-1.224-2.828-3.286-2.828-.877 0-1.674.22-2.45.682l-1.081.642v1.383l.612.141.449-1.003c.061-.14.633-.28 1.184-.28 1.368 0 2.021.742 2.082 2.367l-1.796.36c-2.572.523-3.491 1.304-3.491 3.01 0 1.624.837 2.486 2.388 2.486.47 0 .797-.08 1-.24zm0-.963c-.388.522-1.143.903-1.756.903-.652 0-1.04-.482-1.04-1.264 0-.983.428-1.384 1.877-1.766l.92-.24zm4.248 1.624v.743l2.633-.06c.266 0 .307 0 3.082.06v-.742l-.795-.04c-.939-.1-.98-.161-.98-1.284V172.2c0-.622.837-1.284 1.633-1.284.51 0 .878.221 1.163.722l.49-.2.103-2.588a2.171 2.133 0 0 0-.756-.12c-.592 0-.96.24-1.735 1.063l-.898.963v-1.906l-.204-.12-1.43.441c-.632.2-1.02.261-2.306.422v.722l.918.06c.47.04.531.18.531 1.404v4.393c0 1.103-.061 1.224-.735 1.284zm14.005-.521-.163-.381c-.428.2-.612.26-.939.26-.96 0-1.266-.32-1.266-1.303v-4.774h2.164l.164-1.304-2.328.12v-1.163c0-1.103.062-1.805.245-2.728l-.285-.2c-.817.38-1.45.622-2.49 1.003.06 1.002.08 1.403.08 1.845v1.204l-1.347.862v.441l1.307-.08v5.195c0 1.785.755 2.548 2.531 2.548.633 0 1.143-.14 1.327-.361zm.635.521v.743l2.633-.06c.47 0 1.347.02 2.592.06v-.742l-.55-.04c-.674-.08-.736-.181-.736-1.284v-4.353c0-.682.837-1.364 1.654-1.364 1.184 0 1.756.742 1.756 2.327v3.39c0 1.103-.082 1.244-.735 1.284l-.633.04v.742c1.47-.04 2.082-.06 2.633-.06.552 0 1.184.02 2.675.06v-.742l-.715-.04c-.673-.06-.735-.181-.735-1.284v-4.353c0-.682.838-1.364 1.654-1.364 1.184 0 1.756.742 1.756 2.327v5.455l1.898-.059c1.021.02 1.164.02 2.001.06v-.742l-.674-.04c-.673-.06-.735-.181-.735-1.284v-3.731c0-2.768-.735-3.71-2.94-3.71-.653 0-1.102.12-1.45.38l-1.632 1.244c-.47-1.144-1.286-1.625-2.695-1.625-.653 0-1.102.12-1.45.381l-1.633 1.244v-1.505l-.122-.12c-2.123.682-2.695.802-3.817.862v.722l.918.06c.47.04.531.181.531 1.405v4.393c0 1.103-.062 1.224-.735 1.284zm26.601-5.235c0-2.146-1.53-3.53-3.879-3.53-.694 0-1.224.14-1.776.461l-.96.562c-1.347.802-1.938 1.966-1.938 3.892 0 3.189 1.612 4.873 4.674 4.873 1.184 0 1.899-.2 3.226-.861l.449-.963-.245-.301c-.96.522-1.572.702-2.388.702-1.063 0-2.063-.562-2.573-1.425-.326-.562-.449-1.023-.49-1.966h2.675c1.184 0 2.225-.14 3.225-.4zm-4.307.442h-.082c-.184 0-.53-.02-.98-.04-.102 0-.286 0-.653-.02.061-1.986.551-2.788 1.735-2.788 1.164 0 1.654.802 1.694 2.788zm5.125 4.793v.743l2.634-.06c.407 0 1.387.02 2.755.06v-.742l-.714-.04c-.673-.06-.735-.181-.735-1.284v-4.353c0-.702.837-1.364 1.756-1.364 1.326 0 1.898.682 1.898 2.307v5.476c1.061-.04 1.47-.06 1.838-.06.326 0 .755.02 2.062.06v-.742l-.674-.04c-.674-.06-.735-.181-.735-1.284v-3.731c0-1.545-.184-2.307-.715-2.869-.53-.541-1.347-.842-2.368-.842-.632 0-1.082.12-1.43.381l-1.632 1.244v-1.505l-.122-.12c-2.124.682-2.695.802-3.818.862v.722l.918.06c.47.04.532.181.532 1.405v4.393c0 1.103-.062 1.224-.735 1.284zm18.13-.521-.164-.381c-.428.2-.612.26-.938.26-.96 0-1.267-.32-1.267-1.303v-4.774h2.165l.163-1.304-2.328.12v-1.163c0-1.103.062-1.805.246-2.728l-.286-.2c-.817.38-1.45.622-2.491 1.003.061 1.002.082 1.403.082 1.845v1.204l-1.348.862v.441l1.306-.08v5.195c0 1.785.756 2.548 2.532 2.548.633 0 1.143-.14 1.327-.361z" style="font-style:normal;font-variant:normal;font-weight:700;font-stretch:normal;font-family:Palatino;-inkscape-font-specification:'Palatino Bold';letter-spacing:-.7582314px;fill:#002e79;fill-opacity:1;stroke-width:.50590247"/><path d="m128.067 141.933-1.277-1.278c-6.925 3.621-13.742 5.432-20.773 5.432-18.748 0-30.998-12.193-30.998-32.326 0-18.322 10.332-29.613 27.27-29.613 8.096 0 13.21 2.023 18.961 7.35l.415 9.16h4.272c1.172-10.652 1.492-12.25 2.45-16.297l-.639-1.172c-9.694-3.835-15.659-5.007-24.927-5.007-26.95 0-43.78 14.274-43.78 37.07 0 22.634 16.404 37.76 42.715 37.76 9.8 0 16.085-1.492 23.968-5.86zm5.202-12.085c0 7.99-.426 12.357-1.598 18.429 7.884 3.515 15.03 4.97 23.126 4.97 19.068 0 31.505-8.928 31.752-24.265.166-10.237-2.546-17.328-15.684-19.751l-12.979-2.394c-8.816-1.626-12.226-4.123-12.226-10.291 0-7.457 5.384-12.73 15.21-12.73 5.645 0 10.77 1.763 14.817 5.705l.64 8.735h4.367c0-6.925.822-11.939 1.638-15.217l-.532-1.278c-7.104-2.406-13.155-3.58-20.186-3.58-20.34 0-29.315 11.074-29.315 22.667 0 9.811 3.937 16.726 16.474 19.032l14.927 2.745c7.19 1.323 9.41 6.177 9.41 11.29 0 7.883-7.423 13.604-16.584 13.604-7.244 0-14.26-3.037-18.285-8.02l-.19-9.651z" style="font-style:normal;font-variant:normal;font-weight:700;font-stretch:normal;font-family:'Palatino Linotype';-inkscape-font-specification:'Palatino Linotype Bold';letter-spacing:-7.32081985px;fill:#002e79;fill-opacity:1;stroke:none;stroke-width:.98752433;stroke-miterlimit:4;stroke-dasharray:none;stroke-opacity:1"/><path d="M174.475 186.878H82.054a.765.765 0 1 1 0-1.53h91.892a.765.765 0 1 1 0 1.53m21.594-27.139H60.99a.765.765 0 1 1 0-1.53h134.02a.765.765 0 1 1 0 1.53" style="fill:#b58a43;fill-opacity:1;fill-rule:nonzero;stroke:none;stroke-width:.61223221"/></svg>