<svg xmlns="http://www.w3.org/2000/svg" version="1.1" id="svg42" width="51.703" height="15.261"><defs id="defs4"><style id="style2">.cls-1{fill:#fff}</style></defs><g id="Layer_2" data-name="Layer 2" transform="translate(0 -14.359)"><g id="Layer_2-2" data-name="Layer 2" transform="translate(-8.357 7.85)"><path class="cls-1" d="M22.6 9.22a.67.67 0 0 0-.28-.22.86.86 0 0 0-.39-.09 1 1 0 0 0-.79.3 1.14 1.14 0 0 0-.29.8 1.16 1.16 0 0 0 .29.81 1 1 0 0 0 .79.3.71.71 0 0 0 .39-.1 1 1 0 0 0 .28-.23l.89.93a1.74 1.74 0 0 1-.74.46 2.74 2.74 0 0 1-.82.13 2.65 2.65 0 0 1-.94-.16 2.36 2.36 0 0 1-.78-.47 2.22 2.22 0 0 1-.52-.72 2.45 2.45 0 0 1 0-1.89 2.37 2.37 0 0 1 .52-.73 2.33 2.33 0 0 1 .79-.48 2.65 2.65 0 0 1 .94-.16 2.74 2.74 0 0 1 .82.13 1.83 1.83 0 0 1 .74.45z" id="path6" style="fill:#fff"/><path class="cls-1" d="M23.82 10a2.17 2.17 0 0 1 .7-1.67 2.33 2.33 0 0 1 .78-.46 2.67 2.67 0 0 1 .95-.16 2.75 2.75 0 0 1 .95.16 2.18 2.18 0 0 1 1.29 1.19 2.45 2.45 0 0 1 0 1.89 2.22 2.22 0 0 1-.52.72 2.42 2.42 0 0 1-.77.47 2.75 2.75 0 0 1-.95.16 2.67 2.67 0 0 1-.95-.16 2.36 2.36 0 0 1-.78-.47 2.22 2.22 0 0 1-.52-.72 2.4 2.4 0 0 1-.18-.95zm1.35 0a1.16 1.16 0 0 0 .28.81 1.2 1.2 0 0 0 1.59 0 1.16 1.16 0 0 0 .29-.81 1.14 1.14 0 0 0-.29-.8 1.2 1.2 0 0 0-1.59 0 1.13 1.13 0 0 0-.28.8z" id="path8" style="fill:#fff"/><path class="cls-1" d="M29.47 7.81h1.29v.59a1 1 0 0 1 .24-.25 1.64 1.64 0 0 1 .28-.23 1.79 1.79 0 0 1 .37-.16 1.78 1.78 0 0 1 1.26.13 1.16 1.16 0 0 1 .54.59 1.44 1.44 0 0 1 .57-.6 1.69 1.69 0 0 1 .82-.18 1.65 1.65 0 0 1 .74.15 1.16 1.16 0 0 1 .47.4 1.61 1.61 0 0 1 .26.61 3.45 3.45 0 0 1 .07.74v2.58H35V9.63a1 1 0 0 0-.13-.52.48.48 0 0 0-.46-.22A.88.88 0 0 0 34 9a.6.6 0 0 0-.25.22.8.8 0 0 0-.14.31 1.58 1.58 0 0 0 0 .38v2.31h-1.38V9.58a1.13 1.13 0 0 0-.06-.32A.61.61 0 0 0 32 9a.48.48 0 0 0-.35-.11.89.89 0 0 0-.45.11.64.64 0 0 0-.24.25 1.09 1.09 0 0 0-.12.36v2.59h-1.37z" id="path10" style="fill:#fff"/><path class="cls-1" d="M37.42 7.81h1.25v.57l.22-.24a1.46 1.46 0 0 1 .3-.22 2.54 2.54 0 0 1 .38-.16A1.61 1.61 0 0 1 40 7.7a2.31 2.31 0 0 1 .89.17A1.91 1.91 0 0 1 42 9.05a2.67 2.67 0 0 1 .16.91 2.89 2.89 0 0 1-.14.88 2.78 2.78 0 0 1-.4.74 2 2 0 0 1-.63.52 1.85 1.85 0 0 1-.83.19 2.26 2.26 0 0 1-.79-.13 1.33 1.33 0 0 1-.6-.45v2.52h-1.35zM38.67 10a1.16 1.16 0 0 0 .28.81 1.2 1.2 0 0 0 1.59 0 1.16 1.16 0 0 0 .29-.81 1.14 1.14 0 0 0-.29-.8 1.2 1.2 0 0 0-1.59 0 1.13 1.13 0 0 0-.28.8z" id="path12" style="fill:#fff"/><path class="cls-1" d="M47.18 12.18h-1.3v-.59a1.38 1.38 0 0 1-.19.25 1.18 1.18 0 0 1-.27.22 1.8 1.8 0 0 1-.37.17 1.63 1.63 0 0 1-.45.06 1.81 1.81 0 0 1-.83-.16 1.17 1.17 0 0 1-.5-.43A1.57 1.57 0 0 1 43 11a5.27 5.27 0 0 1-.06-.82V7.81h1.35v2.58a1.34 1.34 0 0 0 .08.37.67.67 0 0 0 .21.28.6.6 0 0 0 .4.11.87.87 0 0 0 .42-.09.75.75 0 0 0 .25-.25 1.08 1.08 0 0 0 .11-.36 2.73 2.73 0 0 0 0-.41V7.81h1.35z" id="path14" style="fill:#fff"/><path class="cls-1" d="M51.11 8.89h-1.19v1.46a3 3 0 0 0 0 .32.66.66 0 0 0 .08.26.48.48 0 0 0 .2.17.8.8 0 0 0 .34.06h.29a.47.47 0 0 0 .26-.1v1.12a1.79 1.79 0 0 1-.47.11h-.47a2.48 2.48 0 0 1-.63-.07A1.69 1.69 0 0 1 49 12a1.11 1.11 0 0 1-.33-.41 1.41 1.41 0 0 1-.13-.61V8.89h-.86V7.81h.86v-1.3h1.35v1.3h1.19z" id="path16" style="fill:#fff"/><path class="cls-1" d="M55.94 11.43a2.23 2.23 0 0 1-.82.63 2.46 2.46 0 0 1-1 .23 2.75 2.75 0 0 1-1-.16 2.42 2.42 0 0 1-.77-.47 2.22 2.22 0 0 1-.52-.72 2.45 2.45 0 0 1 0-1.89 2.18 2.18 0 0 1 1.29-1.19 2.75 2.75 0 0 1 1-.16 2.11 2.11 0 0 1 .85.16 1.79 1.79 0 0 1 .65.46 2.26 2.26 0 0 1 .41.73 2.81 2.81 0 0 1 .14.94v.43H53a1.07 1.07 0 0 0 .35.61 1 1 0 0 0 .67.23 1 1 0 0 0 .56-.15 1.31 1.31 0 0 0 .4-.38zM54.79 9.5a.81.81 0 0 0-.22-.59.81.81 0 0 0-.6-.24 1.19 1.19 0 0 0-.4.07 1 1 0 0 0-.29.19.7.7 0 0 0-.19.26.84.84 0 0 0-.09.31z" id="path18" style="fill:#fff"/><path class="cls-1" d="M57 7.81h1.35v.7a1.75 1.75 0 0 1 .51-.61 1.35 1.35 0 0 1 .75-.2h.23a1.46 1.46 0 0 1 .22 0V9a1.64 1.64 0 0 0-.28-.07 1.46 1.46 0 0 0-.3 0 1.33 1.33 0 0 0-.61.11.77.77 0 0 0-.34.3 1 1 0 0 0-.16.46 3.65 3.65 0 0 0 0 .59v1.83H57z" id="path20" style="fill:#fff"/><path class="cls-1" d="M19.93 20.09a1.62 1.62 0 0 0 .71.71 2 2 0 0 0 1 .25 1.34 1.34 0 0 0 .48-.08 1.56 1.56 0 0 0 .43-.21 1.12 1.12 0 0 0 .31-.34A.84.84 0 0 0 23 20a.71.71 0 0 0-.26-.6 1.92 1.92 0 0 0-.64-.32c-.25-.07-.53-.14-.83-.2a3.05 3.05 0 0 1-.84-.25 1.78 1.78 0 0 1-.64-.47 1.32 1.32 0 0 1-.26-.86 1.49 1.49 0 0 1 .18-.75 1.54 1.54 0 0 1 .46-.52 1.81 1.81 0 0 1 .64-.31 2.57 2.57 0 0 1 .72-.11 2.71 2.71 0 0 1 1.25.27 1.86 1.86 0 0 1 .81.83l-.68.41a1.54 1.54 0 0 0-.54-.61 1.49 1.49 0 0 0-.84-.21 1.58 1.58 0 0 0-.42.06 1.32 1.32 0 0 0-.4.18.92.92 0 0 0-.3.29.77.77 0 0 0 .14 1 2.1 2.1 0 0 0 .64.29 7.88 7.88 0 0 0 .83.19 3.44 3.44 0 0 1 .84.24 1.74 1.74 0 0 1 .64.5 1.43 1.43 0 0 1 .26.91 1.74 1.74 0 0 1-.17.79 1.64 1.64 0 0 1-.47.57 2.17 2.17 0 0 1-.68.34 2.6 2.6 0 0 1-.79.11 3.18 3.18 0 0 1-1.39-.29 2.06 2.06 0 0 1-1-.9z" id="path22" style="fill:#fff"/><path class="cls-1" d="M30.21 20.72a2.66 2.66 0 0 1-2.15 1 3.3 3.3 0 0 1-1.24-.22 3 3 0 0 1-1-.64 3 3 0 0 1-.63-1 3.25 3.25 0 0 1-.19-1.2 3.34 3.34 0 0 1 .23-1.24 2.9 2.9 0 0 1 .63-1 2.87 2.87 0 0 1 1-.64 3.3 3.3 0 0 1 1.24-.23 2.66 2.66 0 0 1 1.19.27 3.21 3.21 0 0 1 1 .75l-.61.45a2.74 2.74 0 0 0-.72-.57 1.74 1.74 0 0 0-.84-.21 2.33 2.33 0 0 0-1 .19 2.15 2.15 0 0 0-1.19 1.27 2.78 2.78 0 0 0 0 1.86 2.18 2.18 0 0 0 .46.76 2.39 2.39 0 0 0 .73.51 2.33 2.33 0 0 0 1 .19 1.77 1.77 0 0 0 .88-.22 2.39 2.39 0 0 0 .68-.59z" id="path24" style="fill:#fff"/><path class="cls-1" d="M31.33 14.14a.58.58 0 0 1 .57-.57.57.57 0 0 1 .41.17.54.54 0 0 1 .16.4.56.56 0 0 1-.16.41.6.6 0 0 1-.41.16.58.58 0 0 1-.4-.16.57.57 0 0 1-.17-.41zm.19 1.6h.76v5.84h-.76z" id="path26" style="fill:#fff"/><path class="cls-1" d="M39.6 20.48a2.52 2.52 0 0 1-1.1 1 3.37 3.37 0 0 1-1.44.29 3.14 3.14 0 0 1-1.21-.22 3 3 0 0 1-.94-.64 2.88 2.88 0 0 1-.6-1 3.51 3.51 0 0 1-.21-1.24 3.44 3.44 0 0 1 .22-1.22A2.86 2.86 0 0 1 37 15.58a2.76 2.76 0 0 1 1.18.24 2.47 2.47 0 0 1 .86.62 2.72 2.72 0 0 1 .53.88 3.14 3.14 0 0 1 .17 1v.53h-4.88a2.31 2.31 0 0 0 .1.61 2.13 2.13 0 0 0 .35.73 2.09 2.09 0 0 0 .67.61 2.13 2.13 0 0 0 1.1.25 2.35 2.35 0 0 0 1.12-.28A2 2 0 0 0 39 20zm-.6-2.31a1.81 1.81 0 0 0-.15-.74 1.86 1.86 0 0 0-.44-.6 2 2 0 0 0-.64-.41 2.09 2.09 0 0 0-.79-.15 1.92 1.92 0 0 0-1 .25 2.18 2.18 0 0 0-.65.58 2.4 2.4 0 0 0-.35.64 2.12 2.12 0 0 0-.1.43z" id="path28" style="fill:#fff"/><path class="cls-1" d="M41.47 17.38v-1.64h.76v1.02a2.06 2.06 0 0 1 .76-.83 2.25 2.25 0 0 1 1.24-.35 2.56 2.56 0 0 1 1.12.22 1.77 1.77 0 0 1 .67.56 2 2 0 0 1 .34.81 4.08 4.08 0 0 1 .1.93v3.48h-.76v-3.44a3.85 3.85 0 0 0-.06-.69 2 2 0 0 0-.23-.6 1.05 1.05 0 0 0-.44-.42 1.45 1.45 0 0 0-.74-.16 2.3 2.3 0 0 0-.79.14 1.69 1.69 0 0 0-.64.45 1.86 1.86 0 0 0-.43.74 3.07 3.07 0 0 0-.16 1.06v2.92h-.76z" id="path30" style="fill:#fff"/><path class="cls-1" d="M53.4 20.72a2.8 2.8 0 0 1-1 .77 2.93 2.93 0 0 1-1.18.24 3.33 3.33 0 0 1-1.22-.22 3 3 0 0 1-1-.64 3 3 0 0 1-.63-1 3.25 3.25 0 0 1-.23-1.23 3.34 3.34 0 0 1 .23-1.24 2.9 2.9 0 0 1 .63-1 2.87 2.87 0 0 1 1-.64 3.34 3.34 0 0 1 1.24-.23 2.63 2.63 0 0 1 1.19.27 3.25 3.25 0 0 1 1 .75l-.61.45a2.74 2.74 0 0 0-.72-.57 1.78 1.78 0 0 0-.85-.21 2.25 2.25 0 0 0-1 .19 2.13 2.13 0 0 0-.74.51 2.24 2.24 0 0 0-.46.76 2.78 2.78 0 0 0 0 1.86 2.34 2.34 0 0 0 .46.76 2.44 2.44 0 0 0 .74.51 2.25 2.25 0 0 0 1 .19 1.77 1.77 0 0 0 .88-.22 2.58 2.58 0 0 0 .69-.59z" id="path32" style="fill:#fff"/><path class="cls-1" d="M59.75 20.48a2.5 2.5 0 0 1-1.09 1 3.43 3.43 0 0 1-1.44.29 3.11 3.11 0 0 1-1.22-.26 2.72 2.72 0 0 1-1.54-1.62 3.51 3.51 0 0 1-.21-1.24 3.23 3.23 0 0 1 .22-1.22 2.93 2.93 0 0 1 .6-1 3 3 0 0 1 3.29-.64 2.56 2.56 0 0 1 .86.62 2.7 2.7 0 0 1 .52.88 2.89 2.89 0 0 1 .18 1v.53H55a2.71 2.71 0 0 0 .09.61 2.33 2.33 0 0 0 .35.73 2.24 2.24 0 0 0 .68.61 2.09 2.09 0 0 0 1.09.25 2.39 2.39 0 0 0 1.13-.28 2.06 2.06 0 0 0 .86-.74zm-.58-2.31a1.67 1.67 0 0 0-.16-.74 1.84 1.84 0 0 0-.43-.6 2 2 0 0 0-.64-.41 2.13 2.13 0 0 0-.79-.15 2 2 0 0 0-1 .25 2.31 2.31 0 0 0-.65.58 2.35 2.35 0 0 0-.34.64 1.59 1.59 0 0 0-.1.43z" id="path34" style="fill:#fff"/><path d="M17 7.84a1 1 0 0 0-1.36.38L12.91 13l-2.68-4.78a1.003 1.003 0 0 0-1.74 1l3.42 6v5.49a1 1 0 0 0 2 0v-5.47l3.43-6a1 1 0 0 0-.34-1.4z" id="path36" style="fill:#6182a1"/></g></g></svg>